# xmcd
#
# Track frame offsets:
#	150
#	19133
#	36288
#	54487
#	72509
#	91833
#	111332
#	130062
#	149365
#	167802
#	184935
#	203123
#	221109
#	240344
#	259849
#	278551
#
# Disc length: 3971 seconds
#
# Revision: 1
# Processed by: cddbd v1.5.2PL0 Copyright (c) Steve Scherf et al.
# Submitted via: audiograbber 1.83.01
#
DISCID=ee0f8110
DTITLE=Country Hits Vol 1 - HPK099532
DYEAR=2003
DGENRE=Karaoke
TTITLE0=Judd, Wynonna - What The World Needs
TTITLE1=Carter, Deana - There's No Limit
TTITLE2=Rascal Flatts - These Days
TTITLE3=Hill, Faith - Cry
TTITLE4=Chesney, Kenny - Big Star
TTITLE5=McBride, Martina - Concrete Angel
TTITLE6=Worley, Daryl - Have You Forgotten?
TTITLE7=Twain, Shania - I'm Gonna GetchaGood!
TTITLE8=Judd, Wynonna - What The World Needs w/ Vocals
TTITLE9=Carter, Deana - There's No Limit w/ Vocals
TTITLE10=Rascal Flatts - These Days w/ Vocals
TTITLE11=Hill, Faith - Cry w/ Vocals
TTITLE12=Chesney, Kenny - Big Star w/ Vocals
TTITLE13=McBride, Martina - Concrete Angel w/ Vocals
TTITLE14=Worley, Daryl - Have You Forgotten? w/ Vocals
TTITLE15=Twain, Shania - I'm Gonna GetchaGood! w/ Vocals
EXTD=
EXTT0=
EXTT1=
EXTT2=
EXTT3=
EXTT4=
EXTT5=
EXTT6=
EXTT7=
EXTT8=
EXTT9=
EXTT10=
EXTT11=
EXTT12=
EXTT13=
EXTT14=
EXTT15=
PLAYORDER=
